<?xml version="1.0" encoding="UTF-8"?>
<svg id="Capa_1" xmlns="http://www.w3.org/2000/svg" version="1.1" viewBox="0 0 409.6 409.6">
  <!-- Generator: Adobe Illustrator 29.5.1, SVG Export Plug-In . SVG Version: 2.1.0 Build 141)  -->
  <defs>
    <style>
      .st0 {
        fill: #009045;
      }
    </style>
  </defs>
  <path class="st0" d="M216.866.365c4.906,1.217,10.379,1.046,15.48,1.711,90.425,11.784,163.894,84.871,175.54,175.258.656,5.093.503,10.557,1.714,15.455v23.953c-1.219,4.898-1.048,10.362-1.714,15.455-14.62,111.829-118.593,189.973-230.492,175.258C86.814,395.544,13.53,322.811,1.855,232.198c-.656-5.093-.503-10.557-1.714-15.455.325-7.938-.441-16.029,0-23.953C5.845,90.338,90.253,6.06,192.875.365h23.992ZM382.311,204.764c0-97.84-79.443-177.156-177.441-177.156S27.43,106.923,27.43,204.764s79.443,177.156,177.441,177.156,177.441-79.315,177.441-177.156Z"/>
  <path class="st0" d="M310.324,125.285c14.628-2.454,25.905,14.083,16.325,26.068l-143.299,143.287c-5.621,4.601-14.172,4.636-20.101.47l-79.305-79.149c-12.033-14.268,3.291-33.533,19.986-25.818l69.115,67.804,132.329-130.765c1.531-.772,3.255-1.612,4.95-1.896Z"/>
</svg>