<?xml version="1.0" encoding="UTF-8"?>
<svg id="elements" xmlns="http://www.w3.org/2000/svg" version="1.1" viewBox="0 0 68 68">
  <!-- Generator: Adobe Illustrator 29.5.1, SVG Export Plug-In . SVG Version: 2.1.0 Build 141)  -->
  <path d="M56.442,13.482c-4.246-1.955-8.732-3.341-13.341-4.122-.585,1.023-1.245,2.397-1.707,3.508-4.901-.731-9.884-.731-14.785,0-.524-1.199-1.109-2.37-1.754-3.508-4.615.781-9.106,2.173-13.353,4.139C3.083,26.052.797,38.306,1.937,50.373c4.942,3.673,10.479,6.467,16.37,8.261,1.325-1.796,2.498-3.698,3.508-5.688-1.914-.715-3.761-1.597-5.519-2.637.46-.347.904-.696,1.333-1.046,10.363,4.901,22.376,4.901,32.739,0,.438.362.894.713,1.35,1.052-1.762,1.045-3.612,1.931-5.531,2.648,1.008,1.987,2.181,3.886,3.508,5.677,5.892-1.788,11.431-4.583,16.37-8.261,1.333-13.99-2.303-26.133-9.623-36.896ZM23.252,42.959c-3.192,0-5.811-2.923-5.811-6.513s2.561-6.536,5.811-6.536,5.846,2.923,5.817,6.519c-.029,3.595-2.567,6.53-5.817,6.53ZM44.738,42.959c-3.192,0-5.811-2.923-5.811-6.513s2.561-6.536,5.811-6.536,5.846,2.923,5.811,6.519c-.035,3.595-2.561,6.53-5.811,6.53Z" fill="#fff"/>
</svg>