<?xml version="1.0" encoding="UTF-8"?>
<svg id="Capa_1" xmlns="http://www.w3.org/2000/svg" version="1.1" viewBox="0 0 397.354 397.354">
  <!-- Generator: Adobe Illustrator 29.5.1, SVG Export Plug-In . SVG Version: 2.1.0 Build 141)  -->
  <defs>
    <style>
      .st0 {
        fill: #f5f5f5;
      }
    </style>
  </defs>
  <path class="st0" d="M257.542,183.265l-3.31,26.576c-.557,4.445-4.319,7.782-8.777,7.782h-43.049v111.128c-4.544.411-9.142.617-13.792.617-10.396,0-20.552-1.042-30.364-3.019v-108.726h-33.111c-3.038,0-5.52-2.494-5.52-5.54v-33.257c0-3.045,2.481-5.539,5.52-5.539h33.111v-49.882c0-30.61,24.712-55.421,55.196-55.421h38.63c3.038,0,5.52,2.494,5.52,5.539v33.257c0,3.045-2.481,5.539-5.52,5.539h-27.598c-12.187,0-22.072,9.925-22.072,22.171v38.796h46.359c5.321,0,9.434,4.684,8.777,9.978Z"/>
</svg>