<?xml version="1.0" encoding="UTF-8"?>
<svg id="Capa_1" xmlns="http://www.w3.org/2000/svg" version="1.1" viewBox="0 0 397.354 397.354">
  <!-- Generator: Adobe Illustrator 29.5.1, SVG Export Plug-In . SVG Version: 2.1.0 Build 141)  -->
  <defs>
    <style>
      .st0 {
        fill: #f5f5f5;
      }
    </style>
  </defs>
  <path class="st0" d="M263.361,73.62h-129.368c-33.334,0-60.372,27.038-60.372,60.372v129.368c0,33.334,27.038,60.372,60.372,60.372h129.368c33.334,0,60.372-27.038,60.372-60.372v-129.368c0-33.334-27.038-60.372-60.372-60.372ZM302.172,259.048c0,23.804-19.319,43.123-43.123,43.123h-120.744c-23.804,0-43.123-19.319-43.123-43.123v-120.744c0-23.804,19.319-43.123,43.123-43.123h120.744c23.804,0,43.123,19.319,43.123,43.123v120.744Z"/>
  <path class="st0" d="M198.799,133.992c-35.706,0-64.684,28.978-64.684,64.684s28.978,64.684,64.684,64.684,64.684-28.979,64.684-64.684-28.978-64.684-64.684-64.684ZM198.799,241.798c-23.761,0-43.123-19.362-43.123-43.123s19.362-43.123,43.123-43.123,43.123,19.362,43.123,43.123-19.362,43.123-43.123,43.123Z"/>
  <path class="st0" d="M267.796,142.616c-7.133,0-12.937-5.803-12.937-12.937s5.803-12.937,12.937-12.937,12.937,5.803,12.937,12.937-5.803,12.937-12.937,12.937Z"/>
</svg>