<?xml version="1.0" encoding="UTF-8"?>
<svg id="Capa_1" xmlns="http://www.w3.org/2000/svg" version="1.1" viewBox="0 0 397.354 397.354">
  <!-- Generator: Adobe Illustrator 29.5.1, SVG Export Plug-In . SVG Version: 2.1.0 Build 141)  -->
  <defs>
    <style>
      .st0 {
        fill: #fff;
      }

      .st1 {
        fill: #3a3a3a;
      }
    </style>
  </defs>
  <path class="st1" d="M397.354,198.677c0,109.726-88.951,198.677-198.677,198.677h0C88.951,397.354,0,308.404,0,198.677h0C0,88.951,88.951,0,198.677,0h0c109.726,0,198.677,88.951,198.677,198.677h0Z"/>
  <path class="st0" d="M252.581,94.463h-107.807c-27.778,0-50.31,22.531-50.31,50.31v107.807c0,27.778,22.532,50.31,50.31,50.31h107.807c27.778,0,50.31-22.532,50.31-50.31v-107.807c0-27.778-22.532-50.31-50.31-50.31ZM284.923,248.986c0,19.836-16.099,35.936-35.936,35.936h-100.62c-19.837,0-35.936-16.099-35.936-35.936v-100.62c0-19.837,16.099-35.936,35.936-35.936h100.62c19.837,0,35.936,16.099,35.936,35.936v100.62Z"/>
  <path class="st0" d="M198.779,144.772c-29.755,0-53.903,24.149-53.903,53.903s24.149,53.903,53.903,53.903,53.903-24.149,53.903-53.903-24.149-53.903-53.903-53.903ZM198.779,234.611c-19.801,0-35.936-16.135-35.936-35.936s16.135-35.936,35.936-35.936,35.936,16.135,35.936,35.936-16.135,35.936-35.936,35.936Z"/>
  <path class="st0" d="M256.276,151.96c-5.944,0-10.781-4.836-10.781-10.781s4.836-10.781,10.781-10.781,10.781,4.836,10.781,10.781-4.836,10.781-10.781,10.781Z"/>
</svg>