<?xml version="1.0" encoding="UTF-8"?>
<svg id="Capa_1" xmlns="http://www.w3.org/2000/svg" version="1.1" viewBox="0 0 397.354 397.354">
  <!-- Generator: Adobe Illustrator 29.5.1, SVG Export Plug-In . SVG Version: 2.1.0 Build 141)  -->
  <defs>
    <style>
      .st0 {
        fill: #fff;
      }

      .st1 {
        fill: #3a3a3a;
      }
    </style>
  </defs>
  <path class="st1" d="M397.354,198.677c0,109.726-88.951,198.677-198.677,198.677h0C88.951,397.354,0,308.404,0,198.677h0C0,88.951,88.951,0,198.677,0h0c109.726,0,198.677,88.951,198.677,198.677h0Z"/>
  <path class="st0" d="M227.349,180.425l80.37-85.963h-30.522l-63.083,67.475-48.306-67.475h-83.476l84.505,118.04-84.505,90.386h30.522l67.22-71.899,51.472,71.899h83.476l-87.673-122.464ZM125.344,116.568h29.103l117.563,164.215h-29.103L125.344,116.568Z"/>
</svg>