<?xml version="1.0" encoding="UTF-8"?>
<svg id="Capa_1" xmlns="http://www.w3.org/2000/svg" version="1.1" viewBox="0 0 397.354 397.354">
  <!-- Generator: Adobe Illustrator 29.5.1, SVG Export Plug-In . SVG Version: 2.1.0 Build 141)  -->
  <defs>
    <style>
      .st0 {
        fill: #fff;
      }

      .st1 {
        fill: #3a3a3a;
      }
    </style>
  </defs>
  <path class="st1" d="M397.354,198.677c0,109.726-88.951,198.677-198.677,198.677h0C88.951,397.354,0,308.404,0,198.677h0C0,88.951,88.951,0,198.677,0h0c109.726,0,198.677,88.951,198.677,198.677h0Z"/>
  <path class="st0" d="M284.301,114.495H113.061c-16.92,0-30.639,13.719-30.639,30.63v107.104c0,16.92,13.719,30.63,30.639,30.63h171.24c16.912,0,30.63-13.711,30.63-30.63v-107.104c0-16.912-13.719-30.63-30.63-30.63ZM226.184,206.067l-47.616,23.796c-5.496,2.752-11.963-1.241-11.963-7.382v-47.599c0-6.141,6.467-10.134,11.963-7.39l47.616,23.804c6.084,3.038,6.084,11.726,0,14.772Z"/>
</svg>